# xmcd
#
# Track frame offsets:
#	150
#	11882
#	24883
#	43215
#	58800
#	73374
#	90775
#	106786
#	124015
#	144319
#
# Disc length: 2179 seconds
#
# Revision: 0
# Processed by: cddbd v1.5.2PL0 Copyright (c) Steve Scherf et al.
# Submitted via: dBpowerAMP V4.0
#
DISCID=8108810a
DTITLE=Martina McBride - Super Hits
DYEAR=2010
DGENRE=Country
TTITLE0=My Baby Loves Me
TTITLE1=I Love You
TTITLE2=Life #9
TTITLE3=Happy Girl
TTITLE4=Safe In The Arms Of Love
TTITLE5=Here In My Heart
TTITLE6=It's My Time
TTITLE7=Make Me Believe
TTITLE8=Whatever You Say
TTITLE9=Good Bye
EXTD=
EXTT0=
EXTT1=
EXTT2=
EXTT3=
EXTT4=
EXTT5=
EXTT6=
EXTT7=
EXTT8=
EXTT9=
PLAYORDER=
